<?xml version="1.0" encoding="utf-8"?>
<!-- Generator: Adobe Illustrator 16.0.4, SVG Export Plug-In . SVG Version: 6.00 Build 0)  -->
<!DOCTYPE svg PUBLIC "-//W3C//DTD SVG 1.1//EN" "http://www.w3.org/Graphics/SVG/1.1/DTD/svg11.dtd">
<svg version="1.1" id="Layer_1" xmlns="http://www.w3.org/2000/svg" xmlns:xlink="http://www.w3.org/1999/xlink" x="0px"
     y="0px"
     width="800.0px" height="800.0px" viewBox="0 0 800 800" enable-background="new 0 0 800 800"
     xml:space="preserve">

	<!-- Seems that definitions and 'use' is not implemented, I will copy/paste the circle everywhere -->
    <!--	<defs>-->
    <!--		<g id="circle">-->
    <!--			<polygon points="1.00000, 0.00000 0.99799, 0.06342 0.99195, 0.12659 0.98193, 0.18925 0.96795, 0.25115 0.95007, 0.31203 0.92837, 0.37166 0.90293, 0.42979 0.87385, 0.48620 0.84125, 0.54064 0.80527, 0.59291 0.76604, 0.64279 0.72373, 0.69008 0.67851, 0.73459 0.63055, 0.77615 0.58006, 0.81458 0.52723, 0.84973 0.47227, 0.88145 0.41542, 0.90963 0.35689, 0.93415 0.29692, 0.95490 0.23576, 0.97181 0.17365, 0.98481 0.11084, 0.99384 0.04758, 0.99887 -0.01587, 0.99987 -0.07925, 0.99685 -0.14231, 0.98982 -0.20481, 0.97880 -0.26647, 0.96384 -0.32707, 0.94500 -0.38635, 0.92235 -0.44407, 0.89599 -0.50000, 0.86603 -0.55392, 0.83257 -0.60561, 0.79576 -0.65486, 0.75575 -0.70147, 0.71269 -0.74526, 0.66677 -0.78605, 0.61816 -0.82368, 0.56706 -0.85798, 0.51368 -0.88884, 0.45823 -0.91611, 0.40093 -0.93969, 0.34202 -0.95949, 0.28173 -0.97543, 0.22031 -0.98744, 0.15800 -0.99547, 0.09506 -0.99950, 0.03173 -0.99950, -0.03173 -0.99547, -0.09506 -0.98744, -0.15800 -0.97543, -0.22031 -0.95949, -0.28173 -0.93969, -0.34202 -0.91611, -0.40093 -0.88884, -0.45823 -0.85798, -0.51368 -0.82368, -0.56706 -0.78605, -0.61816 -0.74526, -0.66677 -0.70147, -0.71269 -0.65486, -0.75575 -0.60561, -0.79576 -0.55392, -0.83257 -0.50000, -0.86603 -0.44407, -0.89599 -0.38635, -0.92235 -0.32707, -0.94500 -0.26647, -0.96384 -0.20481, -0.97880 -0.14231, -0.98982 -0.07925, -0.99685 -0.01587, -0.99987 0.04758, -0.99887 0.11084, -0.99384 0.17365, -0.98481 0.23576, -0.97181 0.29692, -0.95490 0.35689, -0.93415 0.41542, -0.90963 0.47227, -0.88145 0.52723, -0.84973 0.58006, -0.81458 0.63055, -0.77615 0.67851, -0.73459 0.72373, -0.69008 0.76604, -0.64279 0.80527, -0.59291 0.84125, -0.54064 0.87385, -0.48620 0.90293, -0.42979 0.92837, -0.37166 0.95007, -0.31203 0.96795, -0.25115 0.98193, -0.18925 0.99195, -0.12659 0.99799, -0.06342 1.00000, -0.00000" />-->
    <!--		</g>-->
    <!--	</defs>-->

    <!--	<use xlink:href="#circle" fill="#FFFFFF"/>-->

    <g transform="translate(400.0001 400.0001)">

        <!-- background -->
        <polygon fill="#000000" points="-400,-400 400,-400 400,400 -400,400 "/>

        <!-- head -->
        <g transform="scale(270 360)">
			<polygon fill="#FFFFFF"
                     points="1.00000, 0.00000 0.99799, 0.06342 0.99195, 0.12659 0.98193, 0.18925 0.96795, 0.25115 0.95007, 0.31203 0.92837, 0.37166 0.90293, 0.42979 0.87385, 0.48620 0.84125, 0.54064 0.80527, 0.59291 0.76604, 0.64279 0.72373, 0.69008 0.67851, 0.73459 0.63055, 0.77615 0.58006, 0.81458 0.52723, 0.84973 0.47227, 0.88145 0.41542, 0.90963 0.35689, 0.93415 0.29692, 0.95490 0.23576, 0.97181 0.17365, 0.98481 0.11084, 0.99384 0.04758, 0.99887 -0.01587, 0.99987 -0.07925, 0.99685 -0.14231, 0.98982 -0.20481, 0.97880 -0.26647, 0.96384 -0.32707, 0.94500 -0.38635, 0.92235 -0.44407, 0.89599 -0.50000, 0.86603 -0.55392, 0.83257 -0.60561, 0.79576 -0.65486, 0.75575 -0.70147, 0.71269 -0.74526, 0.66677 -0.78605, 0.61816 -0.82368, 0.56706 -0.85798, 0.51368 -0.88884, 0.45823 -0.91611, 0.40093 -0.93969, 0.34202 -0.95949, 0.28173 -0.97543, 0.22031 -0.98744, 0.15800 -0.99547, 0.09506 -0.99950, 0.03173 -0.99950, -0.03173 -0.99547, -0.09506 -0.98744, -0.15800 -0.97543, -0.22031 -0.95949, -0.28173 -0.93969, -0.34202 -0.91611, -0.40093 -0.88884, -0.45823 -0.85798, -0.51368 -0.82368, -0.56706 -0.78605, -0.61816 -0.74526, -0.66677 -0.70147, -0.71269 -0.65486, -0.75575 -0.60561, -0.79576 -0.55392, -0.83257 -0.50000, -0.86603 -0.44407, -0.89599 -0.38635, -0.92235 -0.32707, -0.94500 -0.26647, -0.96384 -0.20481, -0.97880 -0.14231, -0.98982 -0.07925, -0.99685 -0.01587, -0.99987 0.04758, -0.99887 0.11084, -0.99384 0.17365, -0.98481 0.23576, -0.97181 0.29692, -0.95490 0.35689, -0.93415 0.41542, -0.90963 0.47227, -0.88145 0.52723, -0.84973 0.58006, -0.81458 0.63055, -0.77615 0.67851, -0.73459 0.72373, -0.69008 0.76604, -0.64279 0.80527, -0.59291 0.84125, -0.54064 0.87385, -0.48620 0.90293, -0.42979 0.92837, -0.37166 0.95007, -0.31203 0.96795, -0.25115 0.98193, -0.18925 0.99195, -0.12659 0.99799, -0.06342 1.00000, -0.00000"/>
		</g>
        <g transform="translate(0. 7)">
			<g transform="scale(259 342)">
				<polygon fill="#343434"
                         points="1.00000, 0.00000 0.99799, 0.06342 0.99195, 0.12659 0.98193, 0.18925 0.96795, 0.25115 0.95007, 0.31203 0.92837, 0.37166 0.90293, 0.42979 0.87385, 0.48620 0.84125, 0.54064 0.80527, 0.59291 0.76604, 0.64279 0.72373, 0.69008 0.67851, 0.73459 0.63055, 0.77615 0.58006, 0.81458 0.52723, 0.84973 0.47227, 0.88145 0.41542, 0.90963 0.35689, 0.93415 0.29692, 0.95490 0.23576, 0.97181 0.17365, 0.98481 0.11084, 0.99384 0.04758, 0.99887 -0.01587, 0.99987 -0.07925, 0.99685 -0.14231, 0.98982 -0.20481, 0.97880 -0.26647, 0.96384 -0.32707, 0.94500 -0.38635, 0.92235 -0.44407, 0.89599 -0.50000, 0.86603 -0.55392, 0.83257 -0.60561, 0.79576 -0.65486, 0.75575 -0.70147, 0.71269 -0.74526, 0.66677 -0.78605, 0.61816 -0.82368, 0.56706 -0.85798, 0.51368 -0.88884, 0.45823 -0.91611, 0.40093 -0.93969, 0.34202 -0.95949, 0.28173 -0.97543, 0.22031 -0.98744, 0.15800 -0.99547, 0.09506 -0.99950, 0.03173 -0.99950, -0.03173 -0.99547, -0.09506 -0.98744, -0.15800 -0.97543, -0.22031 -0.95949, -0.28173 -0.93969, -0.34202 -0.91611, -0.40093 -0.88884, -0.45823 -0.85798, -0.51368 -0.82368, -0.56706 -0.78605, -0.61816 -0.74526, -0.66677 -0.70147, -0.71269 -0.65486, -0.75575 -0.60561, -0.79576 -0.55392, -0.83257 -0.50000, -0.86603 -0.44407, -0.89599 -0.38635, -0.92235 -0.32707, -0.94500 -0.26647, -0.96384 -0.20481, -0.97880 -0.14231, -0.98982 -0.07925, -0.99685 -0.01587, -0.99987 0.04758, -0.99887 0.11084, -0.99384 0.17365, -0.98481 0.23576, -0.97181 0.29692, -0.95490 0.35689, -0.93415 0.41542, -0.90963 0.47227, -0.88145 0.52723, -0.84973 0.58006, -0.81458 0.63055, -0.77615 0.67851, -0.73459 0.72373, -0.69008 0.76604, -0.64279 0.80527, -0.59291 0.84125, -0.54064 0.87385, -0.48620 0.90293, -0.42979 0.92837, -0.37166 0.95007, -0.31203 0.96795, -0.25115 0.98193, -0.18925 0.99195, -0.12659 0.99799, -0.06342 1.00000, -0.00000"/>
			</g>
		</g>

        <!-- right lobe	-->
        <g transform="translate(100. 20)">
			<g transform="rotate(17)">
				<g transform="scale(45 120)">
					<polygon fill="#000000"
                             points="1.00000, 0.00000 0.99799, 0.06342 0.99195, 0.12659 0.98193, 0.18925 0.96795, 0.25115 0.95007, 0.31203 0.92837, 0.37166 0.90293, 0.42979 0.87385, 0.48620 0.84125, 0.54064 0.80527, 0.59291 0.76604, 0.64279 0.72373, 0.69008 0.67851, 0.73459 0.63055, 0.77615 0.58006, 0.81458 0.52723, 0.84973 0.47227, 0.88145 0.41542, 0.90963 0.35689, 0.93415 0.29692, 0.95490 0.23576, 0.97181 0.17365, 0.98481 0.11084, 0.99384 0.04758, 0.99887 -0.01587, 0.99987 -0.07925, 0.99685 -0.14231, 0.98982 -0.20481, 0.97880 -0.26647, 0.96384 -0.32707, 0.94500 -0.38635, 0.92235 -0.44407, 0.89599 -0.50000, 0.86603 -0.55392, 0.83257 -0.60561, 0.79576 -0.65486, 0.75575 -0.70147, 0.71269 -0.74526, 0.66677 -0.78605, 0.61816 -0.82368, 0.56706 -0.85798, 0.51368 -0.88884, 0.45823 -0.91611, 0.40093 -0.93969, 0.34202 -0.95949, 0.28173 -0.97543, 0.22031 -0.98744, 0.15800 -0.99547, 0.09506 -0.99950, 0.03173 -0.99950, -0.03173 -0.99547, -0.09506 -0.98744, -0.15800 -0.97543, -0.22031 -0.95949, -0.28173 -0.93969, -0.34202 -0.91611, -0.40093 -0.88884, -0.45823 -0.85798, -0.51368 -0.82368, -0.56706 -0.78605, -0.61816 -0.74526, -0.66677 -0.70147, -0.71269 -0.65486, -0.75575 -0.60561, -0.79576 -0.55392, -0.83257 -0.50000, -0.86603 -0.44407, -0.89599 -0.38635, -0.92235 -0.32707, -0.94500 -0.26647, -0.96384 -0.20481, -0.97880 -0.14231, -0.98982 -0.07925, -0.99685 -0.01587, -0.99987 0.04758, -0.99887 0.11084, -0.99384 0.17365, -0.98481 0.23576, -0.97181 0.29692, -0.95490 0.35689, -0.93415 0.41542, -0.90963 0.47227, -0.88145 0.52723, -0.84973 0.58006, -0.81458 0.63055, -0.77615 0.67851, -0.73459 0.72373, -0.69008 0.76604, -0.64279 0.80527, -0.59291 0.84125, -0.54064 0.87385, -0.48620 0.90293, -0.42979 0.92837, -0.37166 0.95007, -0.31203 0.96795, -0.25115 0.98193, -0.18925 0.99195, -0.12659 0.99799, -0.06342 1.00000, -0.00000"/>
				</g>
			</g>
		</g>

        <!-- left lobe	-->
        <g transform="translate(-100. 20)">
			<g transform="rotate(-17)">
				<g transform="scale(70 160)">
					<polygon fill="#000000"
                             points="1.00000, 0.00000 0.99799, 0.06342 0.99195, 0.12659 0.98193, 0.18925 0.96795, 0.25115 0.95007, 0.31203 0.92837, 0.37166 0.90293, 0.42979 0.87385, 0.48620 0.84125, 0.54064 0.80527, 0.59291 0.76604, 0.64279 0.72373, 0.69008 0.67851, 0.73459 0.63055, 0.77615 0.58006, 0.81458 0.52723, 0.84973 0.47227, 0.88145 0.41542, 0.90963 0.35689, 0.93415 0.29692, 0.95490 0.23576, 0.97181 0.17365, 0.98481 0.11084, 0.99384 0.04758, 0.99887 -0.01587, 0.99987 -0.07925, 0.99685 -0.14231, 0.98982 -0.20481, 0.97880 -0.26647, 0.96384 -0.32707, 0.94500 -0.38635, 0.92235 -0.44407, 0.89599 -0.50000, 0.86603 -0.55392, 0.83257 -0.60561, 0.79576 -0.65486, 0.75575 -0.70147, 0.71269 -0.74526, 0.66677 -0.78605, 0.61816 -0.82368, 0.56706 -0.85798, 0.51368 -0.88884, 0.45823 -0.91611, 0.40093 -0.93969, 0.34202 -0.95949, 0.28173 -0.97543, 0.22031 -0.98744, 0.15800 -0.99547, 0.09506 -0.99950, 0.03173 -0.99950, -0.03173 -0.99547, -0.09506 -0.98744, -0.15800 -0.97543, -0.22031 -0.95949, -0.28173 -0.93969, -0.34202 -0.91611, -0.40093 -0.88884, -0.45823 -0.85798, -0.51368 -0.82368, -0.56706 -0.78605, -0.61816 -0.74526, -0.66677 -0.70147, -0.71269 -0.65486, -0.75575 -0.60561, -0.79576 -0.55392, -0.83257 -0.50000, -0.86603 -0.44407, -0.89599 -0.38635, -0.92235 -0.32707, -0.94500 -0.26647, -0.96384 -0.20481, -0.97880 -0.14231, -0.98982 -0.07925, -0.99685 -0.01587, -0.99987 0.04758, -0.99887 0.11084, -0.99384 0.17365, -0.98481 0.23576, -0.97181 0.29692, -0.95490 0.35689, -0.93415 0.41542, -0.90963 0.47227, -0.88145 0.52723, -0.84973 0.58006, -0.81458 0.63055, -0.77615 0.67851, -0.73459 0.72373, -0.69008 0.76604, -0.64279 0.80527, -0.59291 0.84125, -0.54064 0.87385, -0.48620 0.90293, -0.42979 0.92837, -0.37166 0.95007, -0.31203 0.96795, -0.25115 0.98193, -0.18925 0.99195, -0.12659 0.99799, -0.06342 1.00000, -0.00000"/>
				</g>
			</g>
		</g>

        <!-- top circle	-->
        <g transform="translate(0. -100)">
			<g transform="rotate(0)">
				<g transform="scale(75 90)">
					<polygon fill="#4D4D4D"
                             points="1.00000, 0.00000 0.99799, 0.06342 0.99195, 0.12659 0.98193, 0.18925 0.96795, 0.25115 0.95007, 0.31203 0.92837, 0.37166 0.90293, 0.42979 0.87385, 0.48620 0.84125, 0.54064 0.80527, 0.59291 0.76604, 0.64279 0.72373, 0.69008 0.67851, 0.73459 0.63055, 0.77615 0.58006, 0.81458 0.52723, 0.84973 0.47227, 0.88145 0.41542, 0.90963 0.35689, 0.93415 0.29692, 0.95490 0.23576, 0.97181 0.17365, 0.98481 0.11084, 0.99384 0.04758, 0.99887 -0.01587, 0.99987 -0.07925, 0.99685 -0.14231, 0.98982 -0.20481, 0.97880 -0.26647, 0.96384 -0.32707, 0.94500 -0.38635, 0.92235 -0.44407, 0.89599 -0.50000, 0.86603 -0.55392, 0.83257 -0.60561, 0.79576 -0.65486, 0.75575 -0.70147, 0.71269 -0.74526, 0.66677 -0.78605, 0.61816 -0.82368, 0.56706 -0.85798, 0.51368 -0.88884, 0.45823 -0.91611, 0.40093 -0.93969, 0.34202 -0.95949, 0.28173 -0.97543, 0.22031 -0.98744, 0.15800 -0.99547, 0.09506 -0.99950, 0.03173 -0.99950, -0.03173 -0.99547, -0.09506 -0.98744, -0.15800 -0.97543, -0.22031 -0.95949, -0.28173 -0.93969, -0.34202 -0.91611, -0.40093 -0.88884, -0.45823 -0.85798, -0.51368 -0.82368, -0.56706 -0.78605, -0.61816 -0.74526, -0.66677 -0.70147, -0.71269 -0.65486, -0.75575 -0.60561, -0.79576 -0.55392, -0.83257 -0.50000, -0.86603 -0.44407, -0.89599 -0.38635, -0.92235 -0.32707, -0.94500 -0.26647, -0.96384 -0.20481, -0.97880 -0.14231, -0.98982 -0.07925, -0.99685 -0.01587, -0.99987 0.04758, -0.99887 0.11084, -0.99384 0.17365, -0.98481 0.23576, -0.97181 0.29692, -0.95490 0.35689, -0.93415 0.41542, -0.90963 0.47227, -0.88145 0.52723, -0.84973 0.58006, -0.81458 0.63055, -0.77615 0.67851, -0.73459 0.72373, -0.69008 0.76604, -0.64279 0.80527, -0.59291 0.84125, -0.54064 0.87385, -0.48620 0.90293, -0.42979 0.92837, -0.37166 0.95007, -0.31203 0.96795, -0.25115 0.98193, -0.18925 0.99195, -0.12659 0.99799, -0.06342 1.00000, -0.00000"/>
				</g>
			</g>
		</g>

        <!-- two middle small circles	-->
        <g transform="translate(0. -10)">
			<g transform="rotate(0)">
				<g transform="scale(25 25)">
					<polygon fill="#5D5D5D"
                             points="1.00000, 0.00000 0.99799, 0.06342 0.99195, 0.12659 0.98193, 0.18925 0.96795, 0.25115 0.95007, 0.31203 0.92837, 0.37166 0.90293, 0.42979 0.87385, 0.48620 0.84125, 0.54064 0.80527, 0.59291 0.76604, 0.64279 0.72373, 0.69008 0.67851, 0.73459 0.63055, 0.77615 0.58006, 0.81458 0.52723, 0.84973 0.47227, 0.88145 0.41542, 0.90963 0.35689, 0.93415 0.29692, 0.95490 0.23576, 0.97181 0.17365, 0.98481 0.11084, 0.99384 0.04758, 0.99887 -0.01587, 0.99987 -0.07925, 0.99685 -0.14231, 0.98982 -0.20481, 0.97880 -0.26647, 0.96384 -0.32707, 0.94500 -0.38635, 0.92235 -0.44407, 0.89599 -0.50000, 0.86603 -0.55392, 0.83257 -0.60561, 0.79576 -0.65486, 0.75575 -0.70147, 0.71269 -0.74526, 0.66677 -0.78605, 0.61816 -0.82368, 0.56706 -0.85798, 0.51368 -0.88884, 0.45823 -0.91611, 0.40093 -0.93969, 0.34202 -0.95949, 0.28173 -0.97543, 0.22031 -0.98744, 0.15800 -0.99547, 0.09506 -0.99950, 0.03173 -0.99950, -0.03173 -0.99547, -0.09506 -0.98744, -0.15800 -0.97543, -0.22031 -0.95949, -0.28173 -0.93969, -0.34202 -0.91611, -0.40093 -0.88884, -0.45823 -0.85798, -0.51368 -0.82368, -0.56706 -0.78605, -0.61816 -0.74526, -0.66677 -0.70147, -0.71269 -0.65486, -0.75575 -0.60561, -0.79576 -0.55392, -0.83257 -0.50000, -0.86603 -0.44407, -0.89599 -0.38635, -0.92235 -0.32707, -0.94500 -0.26647, -0.96384 -0.20481, -0.97880 -0.14231, -0.98982 -0.07925, -0.99685 -0.01587, -0.99987 0.04758, -0.99887 0.11084, -0.99384 0.17365, -0.98481 0.23576, -0.97181 0.29692, -0.95490 0.35689, -0.93415 0.41542, -0.90963 0.47227, -0.88145 0.52723, -0.84973 0.58006, -0.81458 0.63055, -0.77615 0.67851, -0.73459 0.72373, -0.69008 0.76604, -0.64279 0.80527, -0.59291 0.84125, -0.54064 0.87385, -0.48620 0.90293, -0.42979 0.92837, -0.37166 0.95007, -0.31203 0.96795, -0.25115 0.98193, -0.18925 0.99195, -0.12659 0.99799, -0.06342 1.00000, -0.00000"/>
				</g>
			</g>
		</g>
        <g transform="translate(0. 80)">
			<g transform="rotate(0)">
				<g transform="scale(25 25)">
					<polygon fill="#5D5D5D"
                             points="1.00000, 0.00000 0.99799, 0.06342 0.99195, 0.12659 0.98193, 0.18925 0.96795, 0.25115 0.95007, 0.31203 0.92837, 0.37166 0.90293, 0.42979 0.87385, 0.48620 0.84125, 0.54064 0.80527, 0.59291 0.76604, 0.64279 0.72373, 0.69008 0.67851, 0.73459 0.63055, 0.77615 0.58006, 0.81458 0.52723, 0.84973 0.47227, 0.88145 0.41542, 0.90963 0.35689, 0.93415 0.29692, 0.95490 0.23576, 0.97181 0.17365, 0.98481 0.11084, 0.99384 0.04758, 0.99887 -0.01587, 0.99987 -0.07925, 0.99685 -0.14231, 0.98982 -0.20481, 0.97880 -0.26647, 0.96384 -0.32707, 0.94500 -0.38635, 0.92235 -0.44407, 0.89599 -0.50000, 0.86603 -0.55392, 0.83257 -0.60561, 0.79576 -0.65486, 0.75575 -0.70147, 0.71269 -0.74526, 0.66677 -0.78605, 0.61816 -0.82368, 0.56706 -0.85798, 0.51368 -0.88884, 0.45823 -0.91611, 0.40093 -0.93969, 0.34202 -0.95949, 0.28173 -0.97543, 0.22031 -0.98744, 0.15800 -0.99547, 0.09506 -0.99950, 0.03173 -0.99950, -0.03173 -0.99547, -0.09506 -0.98744, -0.15800 -0.97543, -0.22031 -0.95949, -0.28173 -0.93969, -0.34202 -0.91611, -0.40093 -0.88884, -0.45823 -0.85798, -0.51368 -0.82368, -0.56706 -0.78605, -0.61816 -0.74526, -0.66677 -0.70147, -0.71269 -0.65486, -0.75575 -0.60561, -0.79576 -0.55392, -0.83257 -0.50000, -0.86603 -0.44407, -0.89599 -0.38635, -0.92235 -0.32707, -0.94500 -0.26647, -0.96384 -0.20481, -0.97880 -0.14231, -0.98982 -0.07925, -0.99685 -0.01587, -0.99987 0.04758, -0.99887 0.11084, -0.99384 0.17365, -0.98481 0.23576, -0.97181 0.29692, -0.95490 0.35689, -0.93415 0.41542, -0.90963 0.47227, -0.88145 0.52723, -0.84973 0.58006, -0.81458 0.63055, -0.77615 0.67851, -0.73459 0.72373, -0.69008 0.76604, -0.64279 0.80527, -0.59291 0.84125, -0.54064 0.87385, -0.48620 0.90293, -0.42979 0.92837, -0.37166 0.95007, -0.31203 0.96795, -0.25115 0.98193, -0.18925 0.99195, -0.12659 0.99799, -0.06342 1.00000, -0.00000"/>
				</g>
			</g>
		</g>


        <!-- three bottom small ellipses -->
        <g transform="translate(0. 250)">
			<g transform="rotate(0)">
				<g transform="scale(12 12)">
					<polygon fill="#5D5D5D"
                             points="1.00000, 0.00000 0.99799, 0.06342 0.99195, 0.12659 0.98193, 0.18925 0.96795, 0.25115 0.95007, 0.31203 0.92837, 0.37166 0.90293, 0.42979 0.87385, 0.48620 0.84125, 0.54064 0.80527, 0.59291 0.76604, 0.64279 0.72373, 0.69008 0.67851, 0.73459 0.63055, 0.77615 0.58006, 0.81458 0.52723, 0.84973 0.47227, 0.88145 0.41542, 0.90963 0.35689, 0.93415 0.29692, 0.95490 0.23576, 0.97181 0.17365, 0.98481 0.11084, 0.99384 0.04758, 0.99887 -0.01587, 0.99987 -0.07925, 0.99685 -0.14231, 0.98982 -0.20481, 0.97880 -0.26647, 0.96384 -0.32707, 0.94500 -0.38635, 0.92235 -0.44407, 0.89599 -0.50000, 0.86603 -0.55392, 0.83257 -0.60561, 0.79576 -0.65486, 0.75575 -0.70147, 0.71269 -0.74526, 0.66677 -0.78605, 0.61816 -0.82368, 0.56706 -0.85798, 0.51368 -0.88884, 0.45823 -0.91611, 0.40093 -0.93969, 0.34202 -0.95949, 0.28173 -0.97543, 0.22031 -0.98744, 0.15800 -0.99547, 0.09506 -0.99950, 0.03173 -0.99950, -0.03173 -0.99547, -0.09506 -0.98744, -0.15800 -0.97543, -0.22031 -0.95949, -0.28173 -0.93969, -0.34202 -0.91611, -0.40093 -0.88884, -0.45823 -0.85798, -0.51368 -0.82368, -0.56706 -0.78605, -0.61816 -0.74526, -0.66677 -0.70147, -0.71269 -0.65486, -0.75575 -0.60561, -0.79576 -0.55392, -0.83257 -0.50000, -0.86603 -0.44407, -0.89599 -0.38635, -0.92235 -0.32707, -0.94500 -0.26647, -0.96384 -0.20481, -0.97880 -0.14231, -0.98982 -0.07925, -0.99685 -0.01587, -0.99987 0.04758, -0.99887 0.11084, -0.99384 0.17365, -0.98481 0.23576, -0.97181 0.29692, -0.95490 0.35689, -0.93415 0.41542, -0.90963 0.47227, -0.88145 0.52723, -0.84973 0.58006, -0.81458 0.63055, -0.77615 0.67851, -0.73459 0.72373, -0.69008 0.76604, -0.64279 0.80527, -0.59291 0.84125, -0.54064 0.87385, -0.48620 0.90293, -0.42979 0.92837, -0.37166 0.95007, -0.31203 0.96795, -0.25115 0.98193, -0.18925 0.99195, -0.12659 0.99799, -0.06342 1.00000, -0.00000"/>
				</g>
			</g>
		</g>
        <g transform="translate(-45. 250)">
			<g transform="rotate(0)">
				<g transform="scale(22 12)">
					<polygon fill="#5D5D5D"
                             points="1.00000, 0.00000 0.99799, 0.06342 0.99195, 0.12659 0.98193, 0.18925 0.96795, 0.25115 0.95007, 0.31203 0.92837, 0.37166 0.90293, 0.42979 0.87385, 0.48620 0.84125, 0.54064 0.80527, 0.59291 0.76604, 0.64279 0.72373, 0.69008 0.67851, 0.73459 0.63055, 0.77615 0.58006, 0.81458 0.52723, 0.84973 0.47227, 0.88145 0.41542, 0.90963 0.35689, 0.93415 0.29692, 0.95490 0.23576, 0.97181 0.17365, 0.98481 0.11084, 0.99384 0.04758, 0.99887 -0.01587, 0.99987 -0.07925, 0.99685 -0.14231, 0.98982 -0.20481, 0.97880 -0.26647, 0.96384 -0.32707, 0.94500 -0.38635, 0.92235 -0.44407, 0.89599 -0.50000, 0.86603 -0.55392, 0.83257 -0.60561, 0.79576 -0.65486, 0.75575 -0.70147, 0.71269 -0.74526, 0.66677 -0.78605, 0.61816 -0.82368, 0.56706 -0.85798, 0.51368 -0.88884, 0.45823 -0.91611, 0.40093 -0.93969, 0.34202 -0.95949, 0.28173 -0.97543, 0.22031 -0.98744, 0.15800 -0.99547, 0.09506 -0.99950, 0.03173 -0.99950, -0.03173 -0.99547, -0.09506 -0.98744, -0.15800 -0.97543, -0.22031 -0.95949, -0.28173 -0.93969, -0.34202 -0.91611, -0.40093 -0.88884, -0.45823 -0.85798, -0.51368 -0.82368, -0.56706 -0.78605, -0.61816 -0.74526, -0.66677 -0.70147, -0.71269 -0.65486, -0.75575 -0.60561, -0.79576 -0.55392, -0.83257 -0.50000, -0.86603 -0.44407, -0.89599 -0.38635, -0.92235 -0.32707, -0.94500 -0.26647, -0.96384 -0.20481, -0.97880 -0.14231, -0.98982 -0.07925, -0.99685 -0.01587, -0.99987 0.04758, -0.99887 0.11084, -0.99384 0.17365, -0.98481 0.23576, -0.97181 0.29692, -0.95490 0.35689, -0.93415 0.41542, -0.90963 0.47227, -0.88145 0.52723, -0.84973 0.58006, -0.81458 0.63055, -0.77615 0.67851, -0.73459 0.72373, -0.69008 0.76604, -0.64279 0.80527, -0.59291 0.84125, -0.54064 0.87385, -0.48620 0.90293, -0.42979 0.92837, -0.37166 0.95007, -0.31203 0.96795, -0.25115 0.98193, -0.18925 0.99195, -0.12659 0.99799, -0.06342 1.00000, -0.00000"/>
				</g>
			</g>
		</g>
        <g transform="translate(35. 250)">
			<g transform="rotate(0)">
				<g transform="scale(12 22)">
					<polygon fill="#5D5D5D"
                             points="1.00000, 0.00000 0.99799, 0.06342 0.99195, 0.12659 0.98193, 0.18925 0.96795, 0.25115 0.95007, 0.31203 0.92837, 0.37166 0.90293, 0.42979 0.87385, 0.48620 0.84125, 0.54064 0.80527, 0.59291 0.76604, 0.64279 0.72373, 0.69008 0.67851, 0.73459 0.63055, 0.77615 0.58006, 0.81458 0.52723, 0.84973 0.47227, 0.88145 0.41542, 0.90963 0.35689, 0.93415 0.29692, 0.95490 0.23576, 0.97181 0.17365, 0.98481 0.11084, 0.99384 0.04758, 0.99887 -0.01587, 0.99987 -0.07925, 0.99685 -0.14231, 0.98982 -0.20481, 0.97880 -0.26647, 0.96384 -0.32707, 0.94500 -0.38635, 0.92235 -0.44407, 0.89599 -0.50000, 0.86603 -0.55392, 0.83257 -0.60561, 0.79576 -0.65486, 0.75575 -0.70147, 0.71269 -0.74526, 0.66677 -0.78605, 0.61816 -0.82368, 0.56706 -0.85798, 0.51368 -0.88884, 0.45823 -0.91611, 0.40093 -0.93969, 0.34202 -0.95949, 0.28173 -0.97543, 0.22031 -0.98744, 0.15800 -0.99547, 0.09506 -0.99950, 0.03173 -0.99950, -0.03173 -0.99547, -0.09506 -0.98744, -0.15800 -0.97543, -0.22031 -0.95949, -0.28173 -0.93969, -0.34202 -0.91611, -0.40093 -0.88884, -0.45823 -0.85798, -0.51368 -0.82368, -0.56706 -0.78605, -0.61816 -0.74526, -0.66677 -0.70147, -0.71269 -0.65486, -0.75575 -0.60561, -0.79576 -0.55392, -0.83257 -0.50000, -0.86603 -0.44407, -0.89599 -0.38635, -0.92235 -0.32707, -0.94500 -0.26647, -0.96384 -0.20481, -0.97880 -0.14231, -0.98982 -0.07925, -0.99685 -0.01587, -0.99987 0.04758, -0.99887 0.11084, -0.99384 0.17365, -0.98481 0.23576, -0.97181 0.29692, -0.95490 0.35689, -0.93415 0.41542, -0.90963 0.47227, -0.88145 0.52723, -0.84973 0.58006, -0.81458 0.63055, -0.77615 0.67851, -0.73459 0.72373, -0.69008 0.76604, -0.64279 0.80527, -0.59291 0.84125, -0.54064 0.87385, -0.48620 0.90293, -0.42979 0.92837, -0.37166 0.95007, -0.31203 0.96795, -0.25115 0.98193, -0.18925 0.99195, -0.12659 0.99799, -0.06342 1.00000, -0.00000"/>
				</g>
			</g>
		</g>

	</g>


</svg>
